<?xml version="1.0" standalone="no"?>
<!DOCTYPE svg PUBLIC "-//W3C//DTD SVG 20010904//EN"
 "http://www.w3.org/TR/2001/REC-SVG-20010904/DTD/svg10.dtd">
<svg version="1.0" xmlns="http://www.w3.org/2000/svg"
 width="500.000000pt" height="500.000000pt" viewBox="0 0 500.000000 500.000000"
 preserveAspectRatio="xMidYMid meet">
<metadata>
Created by potrace 1.14, written by Peter Selinger 2001-2017
</metadata>
<g transform="translate(0.000000,500.000000) scale(0.100000,-0.100000)"
fill="#000000" stroke="none">
<path d="M3507 4243 c-4 -4 -15 -8 -25 -10 -38 -8 -88 -14 -104 -14 -10 0 -18
-4 -18 -9 0 -5 -6 -7 -14 -4 -8 3 -17 0 -21 -5 -3 -6 -11 -9 -16 -6 -5 4 -15
3 -21 -2 -7 -4 -15 -8 -18 -8 -20 -3 -110 -49 -110 -57 0 -5 -4 -7 -8 -4 -5 3
-20 -5 -33 -17 -13 -12 -26 -21 -29 -21 -8 2 -34 -9 -40 -16 -10 -14 -88 -49
-121 -56 -47 -8 -64 -12 -64 -14 0 -8 -71 -7 -115 2 -30 7 -61 13 -68 14 -7 1
-68 30 -136 63 -190 93 -225 104 -357 114 -25 2 -50 7 -56 10 -6 4 -13 4 -16
0 -4 -3 -26 -7 -49 -9 -123 -11 -140 -14 -150 -29 -5 -6 -8 -5 -8 3 0 8 -5 10
-12 5 -15 -9 -10 -8 -65 -18 -24 -4 -43 -11 -43 -16 0 -5 -9 -9 -21 -9 -11 0
-17 -4 -14 -10 3 -5 0 -7 -8 -4 -8 3 -32 -5 -53 -17 -94 -52 -124 -71 -124
-80 0 -5 -7 -9 -15 -9 -16 0 -77 -39 -83 -52 -2 -5 -8 -8 -14 -8 -6 0 -26 -11
-44 -25 -18 -14 -35 -25 -38 -25 -9 0 -211 -142 -214 -151 -2 -5 -8 -9 -13 -9
-15 0 -108 -74 -108 -86 -1 -7 -8 -15 -17 -18 -8 -3 -12 -10 -9 -16 3 -5 -1
-10 -9 -10 -9 0 -16 -5 -16 -10 0 -6 -9 -20 -20 -32 -10 -11 -29 -39 -40 -62
-46 -90 -65 -117 -90 -121 -19 -4 -60 -30 -60 -38 0 -6 -3 -7 -7 -4 -5 6 -42
-18 -96 -63 -32 -26 -83 -102 -128 -190 -49 -94 -102 -215 -99 -226 1 -4 -3
-10 -8 -13 -8 -5 -57 -114 -67 -151 -3 -8 -18 -52 -34 -97 -17 -46 -28 -83
-25 -83 4 0 1 -7 -7 -16 -7 -9 -14 -23 -14 -32 -1 -10 -6 -44 -10 -77 -8 -61
-9 -209 -3 -255 6 -35 29 -103 41 -118 7 -8 1 -25 -19 -55 -16 -23 -31 -44
-34 -47 -12 -11 -69 -107 -83 -140 -23 -54 -28 -70 -43 -140 -14 -60 -17 -80
-29 -150 -9 -57 -6 -221 4 -234 6 -7 8 -16 4 -19 -3 -4 -1 -7 5 -7 7 0 12 -6
12 -13 0 -22 37 -46 135 -88 35 -15 26 -12 100 -28 33 -8 65 -14 70 -16 6 -1
17 -4 25 -7 13 -5 59 -15 152 -33 16 -3 38 -7 50 -10 13 -2 39 -6 58 -9 19 -2
69 -11 110 -20 90 -18 133 -25 183 -31 21 -3 47 -10 58 -15 13 -8 19 -7 19 0
0 7 6 8 17 2 19 -10 70 -20 143 -28 25 -2 56 -7 70 -10 27 -6 47 -9 125 -19
28 -4 64 -9 80 -11 17 -3 54 -6 82 -7 29 -1 53 -5 53 -8 0 -4 10 -7 23 -8 44
-3 102 -9 102 -10 0 -1 29 -4 65 -7 79 -6 106 -10 121 -20 8 -5 9 -3 4 5 -6
10 -3 11 11 3 11 -5 32 -9 47 -8 16 1 30 -1 32 -5 2 -3 25 -5 50 -4 25 2 45 0
45 -4 0 -3 30 -6 66 -6 36 0 67 -2 69 -5 2 -3 22 -5 44 -4 23 0 41 -2 41 -5 0
-4 9 -7 20 -7 11 0 20 4 20 9 0 5 6 5 13 -1 6 -5 48 -12 92 -15 44 -4 90 -8
102 -11 13 -3 25 0 28 5 4 5 12 6 18 2 7 -4 26 -9 42 -10 99 -5 125 -9 125
-16 0 -4 9 -3 20 3 15 8 20 8 20 -2 0 -9 3 -9 12 0 6 6 17 8 27 3 9 -5 40 -9
69 -10 59 -1 143 -11 155 -18 4 -2 7 0 7 6 0 5 10 8 23 5 28 -7 186 -14 335
-16 68 -1 112 -6 112 -12 0 -6 5 -5 12 2 7 7 17 8 29 2 10 -6 20 -6 23 -2 3 4
24 7 48 5 88 -7 128 -8 128 -3 0 3 44 6 98 7 97 2 247 10 247 13 0 1 18 4 40
6 51 6 65 9 90 18 11 5 34 13 50 19 51 19 105 57 117 82 6 14 15 25 19 25 7 0
19 36 24 75 2 11 7 38 11 60 8 48 8 52 0 90 -3 17 -9 45 -12 63 -3 17 -12 44
-20 60 -7 15 -14 32 -14 39 0 6 -3 13 -7 15 -5 2 -26 30 -48 63 -22 33 -50 70
-63 83 -13 12 -20 22 -17 22 9 0 -77 83 -110 107 -29 20 -30 24 -28 89 2 89 1
86 12 79 6 -3 14 3 20 12 5 10 12 17 15 16 14 -6 24 -2 51 21 16 14 32 23 36
20 4 -2 10 5 14 16 3 11 13 20 21 20 8 0 14 4 14 8 0 5 9 18 20 30 29 31 55
105 51 147 -4 44 -15 85 -22 85 -5 0 -9 9 -9 20 0 12 -30 50 -74 93 -54 53
-70 75 -62 83 6 6 17 9 23 7 6 -2 14 0 17 6 4 6 13 8 21 4 8 -3 15 -1 15 5 0
5 16 13 35 16 19 4 35 11 35 16 0 5 7 7 15 4 8 -4 15 -2 15 4 0 5 14 15 30 22
17 7 30 16 30 19 0 4 9 16 19 28 49 53 56 109 18 140 -33 26 -58 70 -60 103
-1 17 -5 30 -10 30 -11 0 -4 22 15 44 10 10 14 24 11 30 -3 6 -3 8 2 4 13 -12
50 38 69 92 13 37 27 55 54 72 21 12 39 26 40 30 2 4 10 8 17 8 8 0 18 7 23
16 5 9 13 14 18 12 11 -4 62 72 67 103 7 39 28 89 36 85 4 -3 15 4 25 16 24
28 28 108 9 172 -9 28 -17 71 -18 95 -3 39 -10 50 -57 95 -30 28 -61 64 -69
81 -20 42 -85 103 -149 139 -30 17 -57 31 -60 31 -3 1 -15 6 -26 13 -12 6 -24
8 -28 5 -3 -3 -6 -1 -6 5 0 7 -11 12 -24 12 -14 0 -28 5 -32 11 -3 6 -15 9
-25 6 -11 -3 -19 -1 -19 3 0 5 -8 9 -17 8 -29 -1 -97 13 -108 22 -6 5 -17 5
-25 0 -21 -13 -67 24 -81 65 -7 19 -21 37 -31 41 -10 3 -18 10 -18 16 0 16
-50 59 -61 53 -5 -4 -9 -1 -9 4 0 10 -96 64 -103 59 -2 -2 -11 3 -20 11 -10 7
-17 10 -17 5 0 -5 -4 -3 -8 4 -5 7 -23 14 -40 15 -18 1 -32 5 -32 10 0 4 -3 6
-7 6 -5 -1 -11 0 -15 1 -33 11 -75 19 -117 25 -24 2 -46 7 -49 9 -2 3 -15 1
-27 -4 -14 -5 -37 -5 -54 0 -20 5 -33 5 -37 -2 -4 -7 -9 -6 -13 1 -4 6 -11 8
-14 4z"/>
</g>
</svg>
